<svg width="135" height="40" viewBox="0 0 135 40" fill="none" xmlns="http://www.w3.org/2000/svg">
<rect width="135" height="40" rx="8" fill="#181818"/>
<path d="M68.136 21.752C65.784 21.752 63.867 23.54 63.867 26.005C63.867 28.454 65.784 30.258 68.136 30.258C70.488 30.258 72.405 28.454 72.405 26.005C72.405 23.54 70.488 21.752 68.136 21.752ZM68.136 28.583C66.847 28.583 65.735 27.52 65.735 26.005C65.735 24.474 66.847 23.427 68.136 23.427C69.425 23.427 70.536 24.474 70.536 26.005C70.536 27.519 69.425 28.583 68.136 28.583ZM58.822 21.752C56.47 21.752 54.553 23.54 54.553 26.005C54.553 28.454 56.47 30.258 58.822 30.258C61.174 30.258 63.091 28.454 63.091 26.005C63.092 23.54 61.174 21.752 58.822 21.752ZM58.822 28.583C57.533 28.583 56.422 27.52 56.422 26.005C56.422 24.474 57.534 23.427 58.822 23.427C60.111 23.427 61.222 24.474 61.222 26.005C61.223 27.519 60.111 28.583 58.822 28.583ZM47.744 23.057V24.861H52.062C51.933 25.876 51.595 26.617 51.079 27.133C50.451 27.761 49.468 28.454 47.744 28.454C45.086 28.454 43.008 26.311 43.008 23.653C43.008 20.995 45.086 18.852 47.744 18.852C49.178 18.852 50.225 19.416 50.998 20.141L52.271 18.868C51.192 17.837 49.758 17.047 47.744 17.047C44.103 17.047 41.042 20.011 41.042 23.652C41.042 27.293 44.103 30.257 47.744 30.257C49.709 30.257 51.192 29.613 52.352 28.404C53.544 27.212 53.915 25.536 53.915 24.183C53.915 23.764 53.883 23.377 53.818 23.055H47.744V23.057ZM93.052 24.458C92.698 23.507 91.618 21.751 89.411 21.751C87.22 21.751 85.4 23.475 85.4 26.004C85.4 28.388 87.204 30.257 89.621 30.257C91.57 30.257 92.698 29.065 93.165 28.372L91.715 27.405C91.232 28.114 90.571 28.581 89.621 28.581C88.67 28.581 87.994 28.146 87.559 27.292L93.246 24.94L93.052 24.458ZM87.252 25.876C87.204 24.233 88.525 23.395 89.475 23.395C90.216 23.395 90.844 23.765 91.054 24.297L87.252 25.876ZM82.628 30H84.497V17.499H82.628V30ZM79.567 22.702H79.503C79.084 22.203 78.279 21.751 77.264 21.751C75.137 21.751 73.188 23.62 73.188 26.02C73.188 28.404 75.137 30.257 77.264 30.257C78.279 30.257 79.084 29.806 79.503 29.29H79.567V29.902C79.567 31.529 78.697 32.399 77.295 32.399C76.151 32.399 75.442 31.577 75.152 30.885L73.525 31.562C73.992 32.69 75.233 34.075 77.295 34.075C79.486 34.075 81.339 32.786 81.339 29.645V22.009H79.567V22.702ZM77.425 28.583C76.136 28.583 75.057 27.504 75.057 26.021C75.057 24.523 76.136 23.427 77.425 23.427C78.698 23.427 79.696 24.522 79.696 26.021C79.696 27.503 78.698 28.583 77.425 28.583ZM101.806 17.499H97.335V30H99.2V25.264H101.805C103.873 25.264 105.906 23.767 105.906 21.382C105.906 18.997 103.874 17.499 101.806 17.499ZM101.854 23.524H99.2V19.239H101.854C103.249 19.239 104.041 20.394 104.041 21.382C104.041 22.35 103.249 23.524 101.854 23.524ZM113.386 21.729C112.035 21.729 110.636 22.324 110.057 23.643L111.714 24.335C112.068 23.643 112.727 23.418 113.419 23.418C114.384 23.418 115.365 23.997 115.381 25.026V25.155C115.043 24.962 114.319 24.672 113.435 24.672C111.65 24.672 109.832 25.653 109.832 27.487C109.832 29.16 111.296 30.237 112.936 30.237C114.191 30.237 114.882 29.674 115.316 29.015H115.38V29.98H117.181V25.187C117.181 22.967 115.525 21.729 113.386 21.729ZM113.16 28.58C112.549 28.58 111.696 28.274 111.696 27.519C111.696 26.554 112.758 26.184 113.674 26.184C114.494 26.184 114.88 26.361 115.379 26.602C115.235 27.76 114.238 28.58 113.16 28.58ZM123.743 22.002L121.604 27.422H121.54L119.321 22.002H117.311L120.64 29.577L118.742 33.791H120.688L125.819 22.002H123.743ZM106.936 30H108.802V17.499H106.936V30Z" fill="white"/>
<path d="M10.435 7.538C10.144 7.846 9.97198 8.324 9.97198 8.943V31.059C9.97198 31.679 10.144 32.156 10.435 32.464L10.509 32.536L22.898 20.147V20.001V19.855L10.509 7.465L10.435 7.538Z" fill="url(#paint0_linear_245_158)"/>
<path d="M27.028 24.279L22.899 20.148V20.002V19.856L27.029 15.726L27.122 15.779L32.015 18.559C33.413 19.353 33.413 20.652 32.015 21.447L27.122 24.227L27.028 24.279Z" fill="url(#paint1_linear_245_158)"/>
<path d="M27.122 24.225L22.899 20.001L10.435 32.464C10.896 32.952 11.656 33.012 12.513 32.525L27.122 24.225Z" fill="url(#paint2_linear_245_158)"/>
<path d="M27.122 15.777L12.514 7.477C11.657 6.99 10.897 7.051 10.436 7.538L22.899 20.001L27.122 15.777Z" fill="url(#paint3_linear_245_158)"/>
<path opacity="0.2" d="M27.029 24.132L12.514 32.379C11.702 32.84 10.976 32.81 10.51 32.39L10.435 32.465L10.509 32.537C10.975 32.957 11.701 32.988 12.513 32.526L27.121 24.226L27.029 24.132Z" fill="#181818"/>
<path opacity="0.12" d="M10.435 32.318C10.144 32.01 9.97198 31.532 9.97198 30.913V31.059C9.97198 31.678 10.144 32.156 10.435 32.464L10.51 32.389L10.435 32.318Z" fill="#181818"/>
<path opacity="0.12" d="M32.015 21.299L27.029 24.132L27.122 24.225L32.015 21.445C32.714 21.048 33.063 20.525 33.063 20.002C33.004 20.475 32.648 20.939 32.015 21.299Z" fill="#181818"/>
<path opacity="0.25" d="M12.513 7.62301L32.014 18.703C32.648 19.063 33.003 19.527 33.062 20.001C33.062 19.478 32.713 18.954 32.014 18.557L12.513 7.47701C11.115 6.68301 9.97198 7.342 9.97198 8.943V9.09001C9.97198 7.48901 11.116 6.82901 12.513 7.62301Z" fill="white"/>
<path fill-rule="evenodd" clip-rule="evenodd" d="M73.609 12.224C73.019 12.831 72.286 13.133 71.409 13.133C70.532 13.133 69.799 12.83 69.21 12.224C68.62 11.618 68.326 10.876 68.326 9.999C68.326 9.122 68.62 8.38 69.21 7.774C69.799 7.167 70.532 6.864 71.409 6.864C72.281 6.864 73.013 7.169 73.605 7.778C74.197 8.387 74.493 9.127 74.493 9.999C74.493 10.877 74.198 11.619 73.609 12.224ZM69.779 11.722C70.223 12.172 70.766 12.396 71.409 12.396C72.052 12.396 72.595 12.171 73.039 11.722C73.483 11.272 73.706 10.698 73.706 10C73.706 9.302 73.483 8.727 73.039 8.278C72.596 7.828 72.052 7.604 71.409 7.604C70.766 7.604 70.223 7.829 69.779 8.278C69.336 8.728 69.113 9.302 69.113 10C69.113 10.698 69.336 11.272 69.779 11.722ZM47.418 10.243C47.418 11.081 47.17 11.748 46.673 12.246C46.109 12.838 45.373 13.134 44.469 13.134C43.603 13.134 42.866 12.834 42.261 12.234C41.655 11.633 41.352 10.889 41.352 10.001C41.352 9.112 41.655 8.368 42.261 7.768C42.866 7.167 43.603 6.867 44.469 6.867C44.899 6.867 45.31 6.951 45.7 7.118C46.091 7.286 46.404 7.509 46.638 7.788L46.111 8.316C45.714 7.841 45.167 7.604 44.468 7.604C43.836 7.604 43.29 7.826 42.829 8.27C42.369 8.714 42.139 9.29 42.139 10C42.139 10.71 42.369 11.286 42.83 11.731C43.291 12.175 43.837 12.397 44.469 12.397C45.139 12.397 45.698 12.174 46.145 11.727C46.435 11.436 46.603 11.031 46.648 10.512H44.469V9.79H47.376C47.405 9.947 47.418 10.098 47.418 10.243ZM52.028 7.737H49.296V9.639H51.76V10.36H49.296V12.262H52.028V13H48.525V7H52.028V7.737ZM54.507 13H55.278V7.737H56.954V7H52.831V7.737H54.507V13ZM59.938 13V7H60.709V13H59.938ZM63.356 13H64.127V7.737H65.803V7H61.68V7.737H63.356V13ZM75.575 7V13H76.344V9.262L76.311 8.106H76.344L79.395 13H80.2V7H79.429V10.512L79.462 11.668H79.429L76.513 7H75.575Z" fill="white"/>
<path d="M73.609 12.224L73.5373 12.1542L73.5373 12.1543L73.609 12.224ZM69.21 12.224L69.2817 12.1543L69.2816 12.1542L69.21 12.224ZM69.21 7.774L69.2816 7.84376L69.2818 7.84364L69.21 7.774ZM73.605 7.778L73.5333 7.8477L73.605 7.778ZM69.779 11.722L69.7077 11.7922L69.7078 11.7922L69.779 11.722ZM73.039 11.722L73.1101 11.7923L73.1102 11.7922L73.039 11.722ZM73.039 8.278L72.9677 8.34815L72.9679 8.34831L73.039 8.278ZM69.779 8.278L69.7079 8.20768L69.7077 8.20784L69.779 8.278ZM46.673 12.246L46.6022 12.1753L46.6006 12.177L46.673 12.246ZM42.261 12.234L42.1906 12.305L42.1906 12.305L42.261 12.234ZM42.261 7.768L42.3313 7.83906L42.3315 7.83894L42.261 7.768ZM45.7 7.118L45.7395 7.02612L45.7394 7.02607L45.7 7.118ZM46.638 7.788L46.7088 7.85864L46.7734 7.79386L46.7146 7.72374L46.638 7.788ZM46.111 8.316L46.0343 8.38013L46.1044 8.46411L46.1818 8.38664L46.111 8.316ZM42.829 8.27L42.7596 8.19797L42.7595 8.19805L42.829 8.27ZM42.83 11.731L42.7605 11.8029L42.7606 11.803L42.83 11.731ZM46.145 11.727L46.2157 11.7977L46.2158 11.7976L46.145 11.727ZM46.648 10.512L46.7476 10.5206L46.757 10.412H46.648V10.512ZM44.469 10.512H44.369V10.612H44.469V10.512ZM44.469 9.79V9.69H44.369V9.79H44.469ZM47.376 9.79L47.4743 9.77183L47.4592 9.69H47.376V9.79ZM49.296 7.737V7.637H49.196V7.737H49.296ZM52.028 7.737V7.837H52.128V7.737H52.028ZM49.296 9.639H49.196V9.739H49.296V9.639ZM51.76 9.639H51.86V9.539H51.76V9.639ZM51.76 10.36V10.46H51.86V10.36H51.76ZM49.296 10.36V10.26H49.196V10.36H49.296ZM49.296 12.262H49.196V12.362H49.296V12.262ZM52.028 12.262H52.128V12.162H52.028V12.262ZM52.028 13V13.1H52.128V13H52.028ZM48.525 13H48.425V13.1H48.525V13ZM48.525 7V6.9H48.425V7H48.525ZM52.028 7H52.128V6.9H52.028V7ZM55.278 13V13.1H55.378V13H55.278ZM54.507 13H54.407V13.1H54.507V13ZM55.278 7.737V7.637H55.178V7.737H55.278ZM56.954 7.737V7.837H57.054V7.737H56.954ZM56.954 7H57.054V6.9H56.954V7ZM52.831 7V6.9H52.731V7H52.831ZM52.831 7.737H52.731V7.837H52.831V7.737ZM54.507 7.737H54.607V7.637H54.507V7.737ZM59.938 7V6.9H59.838V7H59.938ZM59.938 13H59.838V13.1H59.938V13ZM60.709 7H60.809V6.9H60.709V7ZM60.709 13V13.1H60.809V13H60.709ZM64.127 13V13.1H64.227V13H64.127ZM63.356 13H63.256V13.1H63.356V13ZM64.127 7.737V7.637H64.027V7.737H64.127ZM65.803 7.737V7.837H65.903V7.737H65.803ZM65.803 7H65.903V6.9H65.803V7ZM61.68 7V6.9H61.58V7H61.68ZM61.68 7.737H61.58V7.837H61.68V7.737ZM63.356 7.737H63.456V7.637H63.356V7.737ZM75.575 13H75.475V13.1H75.575V13ZM75.575 7V6.9H75.475V7H75.575ZM76.344 13V13.1H76.444V13H76.344ZM76.344 9.262H76.444L76.4439 9.25915L76.344 9.262ZM76.311 8.106V8.006H76.2081L76.211 8.10885L76.311 8.106ZM76.344 8.106L76.4288 8.0531L76.3995 8.006H76.344V8.106ZM79.395 13L79.3101 13.0529L79.3395 13.1H79.395V13ZM80.2 13V13.1H80.3V13H80.2ZM80.2 7H80.3V6.9H80.2V7ZM79.429 7V6.9H79.329V7H79.429ZM79.429 10.512H79.3289L79.329 10.5149L79.429 10.512ZM79.462 11.668V11.768H79.5649L79.5619 11.6651L79.462 11.668ZM79.429 11.668L79.3442 11.721L79.3735 11.768H79.429V11.668ZM76.513 7L76.5978 6.94702L76.5684 6.9H76.513V7ZM71.409 13.233C72.3118 13.233 73.0711 12.9209 73.6807 12.2937L73.5373 12.1543C72.9669 12.7411 72.2602 13.033 71.409 13.033V13.233ZM69.1383 12.2937C69.7469 12.9199 70.5061 13.233 71.409 13.233V13.033C70.5579 13.033 69.8511 12.7401 69.2817 12.1543L69.1383 12.2937ZM68.226 9.999C68.226 10.9009 68.5294 11.6683 69.1383 12.2938L69.2816 12.1542C68.7106 11.5677 68.426 10.8511 68.426 9.999H68.226ZM69.1383 7.70424C68.5294 8.32973 68.226 9.09711 68.226 9.999H68.426C68.426 9.14688 68.7106 8.43026 69.2816 7.84376L69.1383 7.70424ZM71.409 6.764C70.5061 6.764 69.7469 7.07713 69.1382 7.70436L69.2818 7.84364C69.8511 7.25686 70.5579 6.964 71.409 6.964V6.764ZM73.6767 7.7083C73.0653 7.07938 72.3072 6.764 71.409 6.764V6.964C72.2547 6.964 72.9606 7.25861 73.5333 7.8477L73.6767 7.7083ZM74.593 9.999C74.593 9.10172 74.2874 8.3365 73.6767 7.7083L73.5333 7.8477C74.1066 8.4375 74.393 9.15227 74.393 9.999H74.593ZM73.6806 12.2938C74.2886 11.6693 74.593 10.9019 74.593 9.999H74.393C74.393 10.8521 74.1074 11.5687 73.5373 12.1542L73.6806 12.2938ZM71.409 12.296C70.7921 12.296 70.275 12.0823 69.8502 11.6518L69.7078 11.7922C70.171 12.2617 70.7398 12.496 71.409 12.496V12.296ZM72.9679 11.6517C72.543 12.0814 72.0257 12.296 71.409 12.296V12.496C72.0782 12.496 72.647 12.2606 73.1101 11.7923L72.9679 11.6517ZM73.606 10C73.606 10.6746 73.3914 11.2224 72.9678 11.6518L73.1102 11.7922C73.5746 11.3216 73.806 10.7214 73.806 10H73.606ZM72.9679 8.34831C73.3914 8.77657 73.606 9.32534 73.606 10H73.806C73.806 9.27866 73.5746 8.67743 73.1101 8.20768L72.9679 8.34831ZM71.409 7.704C72.0259 7.704 72.544 7.91775 72.9677 8.34815L73.1103 8.20784C72.648 7.73825 72.0781 7.504 71.409 7.504V7.704ZM69.8501 8.34831C70.275 7.91864 70.7922 7.704 71.409 7.704V7.504C70.7397 7.504 70.171 7.73936 69.7079 8.20768L69.8501 8.34831ZM69.213 10C69.213 9.32539 69.4276 8.77751 69.8503 8.34815L69.7077 8.20784C69.2444 8.67849 69.013 9.2786 69.013 10H69.213ZM69.8503 11.6518C69.4276 11.2225 69.213 10.6746 69.213 10H69.013C69.013 10.7214 69.2444 11.3215 69.7077 11.7922L69.8503 11.6518ZM46.7438 12.3166C47.263 11.7964 47.518 11.102 47.518 10.243H47.318C47.318 11.06 47.077 11.6996 46.6022 12.1754L46.7438 12.3166ZM44.469 13.234C45.3971 13.234 46.1604 12.929 46.7454 12.315L46.6006 12.177C46.0576 12.747 45.3489 13.034 44.469 13.034V13.234ZM42.1906 12.305C42.8147 12.9239 43.5771 13.234 44.469 13.234V13.034C43.6288 13.034 42.9173 12.744 42.3314 12.163L42.1906 12.305ZM41.252 10.001C41.252 10.9145 41.5648 11.6844 42.1906 12.305L42.3314 12.163C41.7452 11.5816 41.452 10.8635 41.452 10.001H41.252ZM42.1906 7.69694C41.5648 8.31658 41.252 9.08655 41.252 10.001H41.452C41.452 9.13744 41.7452 8.41942 42.3313 7.83906L42.1906 7.69694ZM44.469 6.767C43.5771 6.767 42.8146 7.07706 42.1905 7.69705L42.3315 7.83894C42.9173 7.25694 43.6288 6.967 44.469 6.967V6.767ZM45.7394 7.02607C45.3368 6.85369 44.9124 6.767 44.469 6.767V6.967C44.8856 6.967 45.2832 7.04831 45.6606 7.20992L45.7394 7.02607ZM46.7146 7.72374C46.4689 7.4308 46.1423 7.1992 45.7395 7.02612L45.6605 7.20987C46.0397 7.37279 46.3391 7.5872 46.5614 7.85226L46.7146 7.72374ZM46.1818 8.38664L46.7088 7.85864L46.5672 7.71735L46.0402 8.24535L46.1818 8.38664ZM44.468 7.704C45.1417 7.704 45.6589 7.93097 46.0343 8.38013L46.1877 8.25187C45.7691 7.75102 45.1923 7.504 44.468 7.504V7.704ZM42.8984 8.34202C43.341 7.9157 43.8622 7.704 44.468 7.704V7.504C43.8097 7.504 43.239 7.7363 42.7596 8.19797L42.8984 8.34202ZM42.239 10C42.239 9.31387 42.4602 8.76495 42.8984 8.34195L42.7595 8.19805C42.2778 8.66304 42.039 9.26612 42.039 10H42.239ZM42.8994 11.659C42.4602 11.235 42.239 10.6861 42.239 10H42.039C42.039 10.7339 42.2778 11.337 42.7605 11.8029L42.8994 11.659ZM44.469 12.297C43.8633 12.297 43.342 12.0853 42.8994 11.659L42.7606 11.803C43.24 12.2647 43.8107 12.497 44.469 12.497V12.297ZM46.0743 11.6563C45.6473 12.0833 45.1143 12.297 44.469 12.297V12.497C45.1637 12.497 45.7487 12.2647 46.2157 11.7977L46.0743 11.6563ZM46.5484 10.5034C46.5048 11.0053 46.3436 11.386 46.0742 11.6564L46.2158 11.7976C46.5264 11.4859 46.7011 11.0567 46.7476 10.5206L46.5484 10.5034ZM44.469 10.612H46.648V10.412H44.469V10.612ZM44.369 9.79V10.512H44.569V9.79H44.369ZM47.376 9.69H44.469V9.89H47.376V9.69ZM47.518 10.243C47.518 10.092 47.5044 9.93489 47.4743 9.77183L47.2777 9.80816C47.3055 9.9591 47.318 10.104 47.318 10.243H47.518ZM49.296 7.837H52.028V7.637H49.296V7.837ZM49.396 9.639V7.737H49.196V9.639H49.396ZM51.76 9.539H49.296V9.739H51.76V9.539ZM51.86 10.36V9.639H51.66V10.36H51.86ZM49.296 10.46H51.76V10.26H49.296V10.46ZM49.396 12.262V10.36H49.196V12.262H49.396ZM52.028 12.162H49.296V12.362H52.028V12.162ZM52.128 13V12.262H51.928V13H52.128ZM48.525 13.1H52.028V12.9H48.525V13.1ZM48.425 7V13H48.625V7H48.425ZM52.028 6.9H48.525V7.1H52.028V6.9ZM52.128 7.737V7H51.928V7.737H52.128ZM55.278 12.9H54.507V13.1H55.278V12.9ZM55.178 7.737V13H55.378V7.737H55.178ZM56.954 7.637H55.278V7.837H56.954V7.637ZM56.854 7V7.737H57.054V7H56.854ZM52.831 7.1H56.954V6.9H52.831V7.1ZM52.931 7.737V7H52.731V7.737H52.931ZM54.507 7.637H52.831V7.837H54.507V7.637ZM54.607 13V7.737H54.407V13H54.607ZM59.838 7V13H60.038V7H59.838ZM60.709 6.9H59.938V7.1H60.709V6.9ZM60.809 13V7H60.609V13H60.809ZM59.938 13.1H60.709V12.9H59.938V13.1ZM64.127 12.9H63.356V13.1H64.127V12.9ZM64.027 7.737V13H64.227V7.737H64.027ZM65.803 7.637H64.127V7.837H65.803V7.637ZM65.703 7V7.737H65.903V7H65.703ZM61.68 7.1H65.803V6.9H61.68V7.1ZM61.78 7.737V7H61.58V7.737H61.78ZM63.356 7.637H61.68V7.837H63.356V7.637ZM63.456 13V7.737H63.256V13H63.456ZM75.675 13V7H75.475V13H75.675ZM76.344 12.9H75.575V13.1H76.344V12.9ZM76.244 9.262V13H76.444V9.262H76.244ZM76.211 8.10885L76.244 9.26485L76.4439 9.25915L76.4109 8.10315L76.211 8.10885ZM76.344 8.006H76.311V8.206H76.344V8.006ZM79.4798 12.9471L76.4288 8.0531L76.2591 8.1589L79.3101 13.0529L79.4798 12.9471ZM80.2 12.9H79.395V13.1H80.2V12.9ZM80.1 7V13H80.3V7H80.1ZM79.429 7.1H80.2V6.9H79.429V7.1ZM79.529 10.512V7H79.329V10.512H79.529ZM79.5619 11.6651L79.5289 10.5091L79.329 10.5149L79.362 11.6709L79.5619 11.6651ZM79.429 11.768H79.462V11.568H79.429V11.768ZM76.4282 7.05298L79.3442 11.721L79.5138 11.615L76.5978 6.94702L76.4282 7.05298ZM75.575 7.1H76.513V6.9H75.575V7.1Z" fill="white"/>
<defs>
<linearGradient id="paint0_linear_245_158" x1="21.7996" y1="8.7098" x2="5.01719" y2="25.4922" gradientUnits="userSpaceOnUse">
<stop stop-color="#00A0FF"/>
<stop offset="0.0066" stop-color="#00A1FF"/>
<stop offset="0.2601" stop-color="#00BEFF"/>
<stop offset="0.5122" stop-color="#00D2FF"/>
<stop offset="0.7604" stop-color="#00DFFF"/>
<stop offset="1" stop-color="#00E3FF"/>
</linearGradient>
<linearGradient id="paint1_linear_245_158" x1="33.8343" y1="20.0015" x2="9.63739" y2="20.0015" gradientUnits="userSpaceOnUse">
<stop stop-color="#FFE000"/>
<stop offset="0.4087" stop-color="#FFBD00"/>
<stop offset="0.7754" stop-color="#FFA500"/>
<stop offset="1" stop-color="#FF9C00"/>
</linearGradient>
<linearGradient id="paint2_linear_245_158" x1="24.8269" y1="22.2962" x2="2.0686" y2="45.0545" gradientUnits="userSpaceOnUse">
<stop stop-color="#FF3A44"/>
<stop offset="1" stop-color="#C31162"/>
</linearGradient>
<linearGradient id="paint3_linear_245_158" x1="7.29723" y1="0.176303" x2="17.4598" y2="10.3388" gradientUnits="userSpaceOnUse">
<stop stop-color="#32A071"/>
<stop offset="0.0685" stop-color="#2DA771"/>
<stop offset="0.4762" stop-color="#15CF74"/>
<stop offset="0.8009" stop-color="#06E775"/>
<stop offset="1" stop-color="#00F076"/>
</linearGradient>
</defs>
</svg>
