<svg width="148" height="32" viewBox="0 0 148 32" fill="none" xmlns="http://www.w3.org/2000/svg">
<path d="M15.2392 2.34164C15.4786 1.60459 16.5214 1.60459 16.7608 2.34164L19.4126 10.5029C19.5197 10.8326 19.8269 11.0557 20.1735 11.0557H28.7548C29.5297 11.0557 29.852 12.0474 29.225 12.5029L22.2826 17.5469C22.0022 17.7506 21.8849 18.1117 21.992 18.4413L24.6437 26.6026C24.8832 27.3397 24.0396 27.9526 23.4126 27.4971L16.4702 22.4531C16.1898 22.2494 15.8102 22.2494 15.5298 22.4531L8.58735 27.4971C7.96038 27.9526 7.1168 27.3397 7.35628 26.6026L10.008 18.4413C10.1151 18.1117 9.99782 17.7506 9.71743 17.5469L2.77501 12.5029C2.14804 12.0474 2.47026 11.0557 3.24524 11.0557H11.8265C12.1731 11.0557 12.4803 10.8326 12.5874 10.5029L15.2392 2.34164Z" fill="white"/>
<path d="M56.072 22.984V25H46.064V8.368H48.392V22.984H56.072ZM69.1001 18.76C69.1001 19.752 68.9561 20.648 68.6681 21.448C68.3801 22.248 67.9721 22.936 67.4441 23.512C66.9321 24.088 66.3161 24.536 65.5961 24.856C64.8761 25.16 64.0921 25.312 63.2441 25.312C62.3961 25.312 61.6121 25.16 60.8921 24.856C60.1721 24.536 59.5481 24.088 59.0201 23.512C58.5081 22.936 58.1081 22.248 57.8201 21.448C57.5321 20.648 57.3881 19.752 57.3881 18.76C57.3881 17.784 57.5321 16.896 57.8201 16.096C58.1081 15.28 58.5081 14.584 59.0201 14.008C59.5481 13.432 60.1721 12.992 60.8921 12.688C61.6121 12.368 62.3961 12.208 63.2441 12.208C64.0921 12.208 64.8761 12.368 65.5961 12.688C66.3161 12.992 66.9321 13.432 67.4441 14.008C67.9721 14.584 68.3801 15.28 68.6681 16.096C68.9561 16.896 69.1001 17.784 69.1001 18.76ZM66.7721 18.76C66.7721 17.352 66.4521 16.24 65.8121 15.424C65.1881 14.592 64.3321 14.176 63.2441 14.176C62.1561 14.176 61.2921 14.592 60.6521 15.424C60.0281 16.24 59.7161 17.352 59.7161 18.76C59.7161 20.168 60.0281 21.288 60.6521 22.12C61.2921 22.936 62.1561 23.344 63.2441 23.344C64.3321 23.344 65.1881 22.936 65.8121 22.12C66.4521 21.288 66.7721 20.168 66.7721 18.76ZM80.0643 23.752C79.8723 23.88 79.4963 24.048 78.9363 24.256C78.3923 24.448 77.7523 24.544 77.0163 24.544C76.2643 24.544 75.5523 24.424 74.8803 24.184C74.2243 23.944 73.6483 23.576 73.1523 23.08C72.6563 22.568 72.2643 21.936 71.9763 21.184C71.6883 20.432 71.5443 19.536 71.5443 18.496C71.5443 17.584 71.6803 16.752 71.9523 16C72.2243 15.232 72.6163 14.576 73.1283 14.032C73.6563 13.472 74.2963 13.04 75.0483 12.736C75.8003 12.416 76.6483 12.256 77.5923 12.256C78.6323 12.256 79.5363 12.336 80.3043 12.496C81.0883 12.64 81.7443 12.776 82.2723 12.904V24.04C82.2723 25.96 81.7763 27.352 80.7843 28.216C79.7923 29.08 78.2883 29.512 76.2723 29.512C75.4883 29.512 74.7443 29.448 74.0403 29.32C73.3523 29.192 72.7523 29.04 72.2403 28.864L72.6483 26.92C73.0963 27.096 73.6403 27.248 74.2803 27.376C74.9363 27.52 75.6163 27.592 76.3203 27.592C77.6483 27.592 78.6003 27.328 79.1763 26.8C79.7683 26.272 80.0643 25.432 80.0643 24.28V23.752ZM80.0403 14.488C79.8163 14.424 79.5123 14.368 79.1283 14.32C78.7603 14.256 78.2563 14.224 77.6163 14.224C76.4163 14.224 75.4883 14.616 74.8323 15.4C74.1923 16.184 73.8723 17.224 73.8723 18.52C73.8723 19.24 73.9603 19.856 74.1363 20.368C74.3283 20.88 74.5763 21.304 74.8803 21.64C75.2003 21.976 75.5603 22.224 75.9603 22.384C76.3763 22.544 76.8003 22.624 77.2323 22.624C77.8243 22.624 78.3683 22.544 78.8643 22.384C79.3603 22.208 79.7523 22.008 80.0403 21.784V14.488ZM97.1313 18.76C97.1313 19.752 96.9873 20.648 96.6993 21.448C96.4113 22.248 96.0033 22.936 95.4753 23.512C94.9633 24.088 94.3473 24.536 93.6273 24.856C92.9073 25.16 92.1233 25.312 91.2753 25.312C90.4273 25.312 89.6433 25.16 88.9233 24.856C88.2033 24.536 87.5793 24.088 87.0513 23.512C86.5393 22.936 86.1393 22.248 85.8513 21.448C85.5633 20.648 85.4193 19.752 85.4193 18.76C85.4193 17.784 85.5633 16.896 85.8513 16.096C86.1393 15.28 86.5393 14.584 87.0513 14.008C87.5793 13.432 88.2033 12.992 88.9233 12.688C89.6433 12.368 90.4273 12.208 91.2753 12.208C92.1233 12.208 92.9073 12.368 93.6273 12.688C94.3473 12.992 94.9633 13.432 95.4753 14.008C96.0033 14.584 96.4113 15.28 96.6993 16.096C96.9873 16.896 97.1313 17.784 97.1313 18.76ZM94.8033 18.76C94.8033 17.352 94.4833 16.24 93.8433 15.424C93.2193 14.592 92.3633 14.176 91.2753 14.176C90.1873 14.176 89.3233 14.592 88.6833 15.424C88.0593 16.24 87.7473 17.352 87.7473 18.76C87.7473 20.168 88.0593 21.288 88.6833 22.12C89.3233 22.936 90.1873 23.344 91.2753 23.344C92.3633 23.344 93.2193 22.936 93.8433 22.12C94.4833 21.288 94.8033 20.168 94.8033 18.76ZM102.36 12.52H107.088V14.392H102.36V20.152C102.36 20.776 102.408 21.296 102.504 21.712C102.6 22.112 102.744 22.432 102.936 22.672C103.128 22.896 103.368 23.056 103.656 23.152C103.944 23.248 104.28 23.296 104.664 23.296C105.336 23.296 105.872 23.224 106.272 23.08C106.688 22.92 106.976 22.808 107.136 22.744L107.568 24.592C107.344 24.704 106.952 24.84 106.392 25C105.832 25.176 105.192 25.264 104.472 25.264C103.624 25.264 102.92 25.16 102.36 24.952C101.816 24.728 101.376 24.4 101.04 23.968C100.704 23.536 100.464 23.008 100.32 22.384C100.192 21.744 100.128 21.008 100.128 20.176V9.04L102.36 8.656V12.52ZM108.464 27.328C108.64 27.408 108.864 27.48 109.136 27.544C109.424 27.624 109.704 27.664 109.976 27.664C110.856 27.664 111.544 27.464 112.04 27.064C112.536 26.68 112.984 26.048 113.384 25.168C112.376 23.248 111.432 21.216 110.552 19.072C109.688 16.912 108.968 14.728 108.392 12.52H110.792C110.968 13.24 111.176 14.016 111.416 14.848C111.672 15.68 111.952 16.536 112.256 17.416C112.56 18.296 112.888 19.176 113.24 20.056C113.592 20.936 113.96 21.784 114.344 22.6C114.952 20.92 115.48 19.256 115.928 17.608C116.376 15.96 116.8 14.264 117.2 12.52H119.504C118.928 14.872 118.288 17.136 117.584 19.312C116.88 21.472 116.12 23.496 115.304 25.384C114.984 26.104 114.648 26.72 114.296 27.232C113.96 27.76 113.584 28.192 113.168 28.528C112.752 28.864 112.28 29.112 111.752 29.272C111.24 29.432 110.656 29.512 110 29.512C109.824 29.512 109.64 29.496 109.448 29.464C109.256 29.448 109.064 29.416 108.872 29.368C108.696 29.336 108.528 29.296 108.368 29.248C108.224 29.2 108.12 29.16 108.056 29.128L108.464 27.328ZM130.522 18.784C130.522 17.328 130.162 16.208 129.442 15.424C128.722 14.64 127.762 14.248 126.562 14.248C125.89 14.248 125.362 14.272 124.978 14.32C124.61 14.368 124.314 14.424 124.09 14.488V22.36C124.362 22.584 124.754 22.8 125.266 23.008C125.778 23.216 126.338 23.32 126.946 23.32C127.586 23.32 128.13 23.208 128.578 22.984C129.042 22.744 129.418 22.424 129.706 22.024C129.994 21.608 130.202 21.128 130.33 20.584C130.458 20.024 130.522 19.424 130.522 18.784ZM132.85 18.784C132.85 19.728 132.722 20.6 132.466 21.4C132.226 22.2 131.866 22.888 131.386 23.464C130.906 24.04 130.314 24.488 129.61 24.808C128.922 25.128 128.13 25.288 127.234 25.288C126.514 25.288 125.874 25.192 125.314 25C124.77 24.808 124.362 24.624 124.09 24.448V29.44H121.858V12.904C122.386 12.776 123.042 12.64 123.826 12.496C124.626 12.336 125.546 12.256 126.586 12.256C127.546 12.256 128.41 12.408 129.178 12.712C129.946 13.016 130.602 13.448 131.146 14.008C131.69 14.568 132.106 15.256 132.394 16.072C132.698 16.872 132.85 17.776 132.85 18.784ZM135.294 18.784C135.294 17.68 135.454 16.72 135.774 15.904C136.094 15.072 136.518 14.384 137.046 13.84C137.574 13.296 138.182 12.888 138.87 12.616C139.558 12.344 140.262 12.208 140.982 12.208C142.662 12.208 143.95 12.736 144.846 13.792C145.742 14.832 146.19 16.424 146.19 18.568C146.19 18.664 146.19 18.792 146.19 18.952C146.19 19.096 146.182 19.232 146.166 19.36H137.622C137.718 20.656 138.094 21.64 138.75 22.312C139.406 22.984 140.43 23.32 141.822 23.32C142.606 23.32 143.262 23.256 143.79 23.128C144.334 22.984 144.742 22.848 145.014 22.72L145.326 24.592C145.054 24.736 144.574 24.888 143.886 25.048C143.214 25.208 142.446 25.288 141.582 25.288C140.494 25.288 139.55 25.128 138.75 24.808C137.966 24.472 137.318 24.016 136.806 23.44C136.294 22.864 135.91 22.184 135.654 21.4C135.414 20.6 135.294 19.728 135.294 18.784ZM143.862 17.56C143.878 16.552 143.622 15.728 143.094 15.088C142.582 14.432 141.87 14.104 140.958 14.104C140.446 14.104 139.99 14.208 139.59 14.416C139.206 14.608 138.878 14.864 138.606 15.184C138.334 15.504 138.118 15.872 137.958 16.288C137.814 16.704 137.718 17.128 137.67 17.56H143.862Z" fill="white"/>
</svg>
