<svg width="80" height="80" viewBox="0 0 80 80" fill="none" xmlns="http://www.w3.org/2000/svg">
<path d="M53.9111 56C52.239 56 50.7135 55.7516 49.3348 55.2548C47.956 54.7288 46.7826 54.0128 45.8145 53.1068C44.8464 52.1717 44.0837 51.0466 43.5263 49.7315C42.9983 48.4164 42.7343 46.9553 42.7343 45.3479C42.7343 43.6822 43.0276 41.9434 43.6143 40.1315C44.2304 38.3196 45.1104 36.4932 46.2545 34.6521C47.3986 32.811 48.7774 30.9991 50.3909 29.2164C52.0336 27.4046 53.8965 25.6658 55.9793 24L61.0397 27.9452C60.0716 28.9388 59.1915 29.8886 58.3995 30.7945C57.6368 31.7005 56.9327 32.6064 56.2873 33.5123C55.6419 34.4183 55.0406 35.3534 54.4832 36.3178C53.9551 37.2822 53.4711 38.305 53.0311 39.3863L65 45.3479C65 46.926 64.692 48.3726 64.0759 49.6877C63.4892 51.0027 62.6972 52.1279 61.6997 53.063C60.7023 53.9982 59.5289 54.7288 58.1795 55.2548C56.83 55.7516 55.4072 56 53.9111 56ZM25.1769 56C23.5047 56 21.9793 55.7516 20.6005 55.2548C19.2217 54.7288 18.0483 54.0128 17.0802 53.1068C16.1122 52.1717 15.3494 51.0466 14.7921 49.7315C14.264 48.4164 14 46.9553 14 45.3479C14 43.6822 14.2934 41.9434 14.8801 40.1315C15.4961 38.3196 16.3762 36.4932 17.5203 34.6521C18.6644 32.811 20.0431 30.9991 21.6566 29.2164C23.2994 27.4046 25.1622 25.6658 27.245 24L32.3054 27.9452C31.3374 28.9388 30.4573 29.8886 29.6652 30.7945C28.9025 31.7005 28.1984 32.6064 27.5531 33.5123C26.9077 34.4183 26.3063 35.3534 25.7489 36.3178C25.2209 37.2822 24.7368 38.305 24.2968 39.3863L36.2657 45.3479C36.2657 46.926 35.9577 48.3726 35.3417 49.6877C34.755 51.0027 33.9629 52.1279 32.9655 53.063C31.9681 53.9982 30.7947 54.7288 29.4452 55.2548C28.0958 55.7516 26.673 56 25.1769 56Z" fill="#181818"/>
</svg>
